<svg width="30" height="30" viewBox="0 0 40 40" fill="none" xmlns="http://www.w3.org/2000/svg">
<path d="M28.333 3.33304C30.5413 3.33963 32.6572 4.21978 34.2187 5.78127C35.7802 7.34276 36.6604 9.4587 36.667 11.667V28.333C36.6604 30.5413 35.7802 32.6572 34.2187 34.2187C32.6572 35.7802 30.5413 36.6604 28.333 36.667H11.667C9.4587 36.6604 7.34276 35.7802 5.78127 34.2187C4.21978 32.6572 3.33963 30.5413 3.33304 28.333V11.667C3.33963 9.4587 4.21978 7.34276 5.78127 5.78127C7.34276 4.21978 9.4587 3.33963 11.667 3.33304H28.333ZM28.333 0H11.667C5.25 0 0 5.25 0 11.667V28.333C0 34.75 5.25 40 11.667 40H28.333C34.75 40 40 34.75 40 28.333V11.667C40 5.25 34.75 0 28.333 0Z" fill="#ebebeb"/>
<path d="M30.833 11.667C30.3386 11.667 29.8552 11.5204 29.4441 11.2457C29.033 10.971 28.7126 10.5805 28.5233 10.1237C28.3341 9.66689 28.2846 9.16422 28.3811 8.67927C28.4775 8.19431 28.7156 7.74886 29.0653 7.39923C29.4149 7.04959 29.8604 6.81149 30.3453 6.71503C30.8303 6.61857 31.3329 6.66808 31.7897 6.85729C32.2466 7.04651 32.637 7.36694 32.9117 7.77807C33.1864 8.18919 33.333 8.67254 33.333 9.16699C33.3337 9.4955 33.2696 9.8209 33.1442 10.1245C33.0188 10.4282 32.8347 10.704 32.6024 10.9363C32.3701 11.1686 32.0942 11.3527 31.7906 11.4781C31.4869 11.6035 31.1615 11.6677 30.833 11.667ZM20 13.3331C21.3186 13.3331 22.6076 13.7241 23.704 14.4567C24.8003 15.1892 25.6549 16.2305 26.1595 17.4487C26.6641 18.6669 26.7961 20.0074 26.5389 21.3007C26.2816 22.594 25.6467 23.7819 24.7143 24.7143C23.7819 25.6467 22.5939 26.2816 21.3007 26.5389C20.0074 26.7961 18.6669 26.6641 17.4487 26.1595C16.2304 25.6549 15.1892 24.8004 14.4566 23.704C13.7241 22.6076 13.333 21.3186 13.333 20C13.3349 18.2324 14.0379 16.5377 15.2878 15.2879C16.5377 14.038 18.2324 13.335 20 13.3331ZM20 10C18.0222 10 16.0888 10.5865 14.4443 11.6853C12.7998 12.7841 11.5181 14.3459 10.7612 16.1732C10.0043 18.0005 9.8063 20.0111 10.1922 21.9509C10.578 23.8907 11.5304 25.6726 12.9289 27.0711C14.3275 28.4696 16.1093 29.422 18.0491 29.8079C19.9889 30.1937 21.9996 29.9957 23.8268 29.2388C25.6541 28.4819 27.2159 27.2002 28.3147 25.5557C29.4135 23.9112 30 21.9778 30 20C30 17.3479 28.9464 14.8043 27.0711 12.929C25.1957 11.0536 22.6522 10 20 10Z" fill="#ebebeb"/>
</svg>
