<svg width="47" height="22" viewBox="0 0 47 22" fill="none" xmlns="http://www.w3.org/2000/svg">
<path d="M13.648 14.07C13.488 13.09 13.298 12.41 13.078 12.03C12.878 11.63 12.548 11.37 12.088 11.25C11.628 11.11 10.868 11.04 9.80801 11.04H8.93801V19.47C8.93801 19.69 8.97801 19.84 9.05801 19.92C9.15801 20 9.35801 20.07 9.65801 20.13L10.948 20.4V21H0.988008V20.4L2.09801 20.16C2.39801 20.1 2.58801 20.03 2.66801 19.95C2.76801 19.87 2.81801 19.72 2.81801 19.5V1.5C2.81801 1.28 2.76801 1.13 2.66801 1.05C2.58801 0.969999 2.39801 0.899999 2.09801 0.839998L0.988008 0.6V-1.43051e-06H9.80801C12.488 -1.43051e-06 14.618 0.179999 16.198 0.539999C17.778 0.879999 18.928 1.45 19.648 2.25C20.368 3.05 20.728 4.14 20.728 5.52C20.728 7.06 20.268 8.25 19.348 9.09C18.428 9.91 16.938 10.47 14.878 10.77C16.058 10.85 16.998 11.04 17.698 11.34C18.418 11.64 18.978 12.12 19.378 12.78C19.778 13.42 20.088 14.31 20.308 15.45L20.638 17.25C20.798 18.11 20.908 18.69 20.968 18.99C21.048 19.29 21.148 19.52 21.268 19.68C21.408 19.84 21.618 19.92 21.898 19.92C22.398 19.92 22.818 19.55 23.158 18.81L23.788 19.35C23.508 19.93 23.078 20.4 22.498 20.76C21.938 21.12 21.018 21.3 19.738 21.3C18.458 21.3 17.448 21.16 16.708 20.88C15.968 20.6 15.388 20.11 14.968 19.41C14.548 18.69 14.228 17.66 14.008 16.32L13.648 14.07ZM8.93801 10.14H10.078C11.238 10.14 12.128 9.98 12.748 9.66C13.388 9.34 13.828 8.85 14.068 8.19C14.308 7.53 14.428 6.64 14.428 5.52C14.428 4.4 14.308 3.51 14.068 2.85C13.828 2.19 13.388 1.7 12.748 1.38C12.128 1.06 11.238 0.899999 10.078 0.899999H8.93801V10.14ZM46.345 6.33C46.345 7.95 45.955 9.22 45.175 10.14C44.415 11.04 43.225 11.69 41.605 12.09C39.985 12.47 37.815 12.66 35.095 12.66H34.315V19.47C34.315 19.69 34.355 19.84 34.435 19.92C34.535 20 34.735 20.07 35.035 20.13L36.325 20.4V21H26.365V20.4L27.475 20.16C27.775 20.1 27.965 20.03 28.045 19.95C28.145 19.87 28.195 19.72 28.195 19.5V1.5C28.195 1.28 28.145 1.13 28.045 1.05C27.965 0.969999 27.775 0.899999 27.475 0.839998L26.365 0.6V-1.43051e-06H35.095C37.815 -1.43051e-06 39.985 0.199999 41.605 0.6C43.225 0.98 44.415 1.63 45.175 2.55C45.955 3.45 46.345 4.71 46.345 6.33ZM34.315 11.76H35.365C36.545 11.76 37.465 11.58 38.125 11.22C38.805 10.86 39.295 10.29 39.595 9.51C39.895 8.73 40.045 7.67 40.045 6.33C40.045 4.99 39.895 3.93 39.595 3.15C39.295 2.37 38.805 1.8 38.125 1.44C37.465 1.08 36.545 0.899999 35.365 0.899999H34.315V11.76Z" fill="#ebebeb"/>
</svg>
